PathFileType	4	(X/Y/Z)	T1_P1_NoVision_Movement_3_0-681.trc
DataRate	CameraRate	NumFrames	NumMarkers	Units	OrigDataRate	OrigDataStartFrame	OrigNumFrames
60	60	7	27	m	60	595	681
Frame#	Time	RHip			RKnee			RAnkle			RBigToe			RSmallToe			RHeel			LHip			LKnee			LAnkle			LBigToe			LSmallToe			LHeel			Neck			Head			Nose			RShoulder			RElbow			RWrist			RThumb			RIndex			RPinky			LShoulder			LElbow			LWrist			LThumb			LIndex			LPinky		
		X1	Y1	Z1	X2	Y2	Z2	X3	Y3	Z3	X4	Y4	Z4	X5	Y5	Z5	X6	Y6	Z6	X7	Y7	Z7	X8	Y8	Z8	X9	Y9	Z9	X10	Y10	Z10	X11	Y11	Z11	X12	Y12	Z12	X13	Y13	Z13	X14	Y14	Z14	X15	Y15	Z15	X16	Y16	Z16	X17	Y17	Z17	X18	Y18	Z18	X19	Y19	Z19	X20	Y20	Z20	X21	Y21	Z21	X22	Y22	Z22	X23	Y23	Z23	X24	Y24	Z24	X25	Y25	Z25	X26	Y26	Z26	X27	Y27	Z27
596	9.933333333333334	-83.94934804641332	3889.433028235856	-582.2580351307831	260.6534783912268	4008.3780874470162	-555.7263339554559	629.4647124230551	4170.28020943923	-539.0939925498056	697.1580632200659	4091.6321371444255	-483.307322467162	707.3588627551319	4089.634111779022	-556.0464115738584	656.0689963052292	4193.573391260006	-532.0199027658535	-129.97753275527634	3938.867112672113	-373.34596997691455	215.78739849948485	4006.209055452647	-355.07129205882217	577.560952443742	4194.55383872832	-382.7427548802287	686.1884050063784	4191.364909233315	-350.64493378888943	650.532119849587	4253.830858995039	-334.07638511653346	604.3940359327618	4252.8717521002145	-422.669011860946	-695.0165396635717	3748.749116113071	-527.8093900984893	-920.9900336522536	3556.762011690166	-451.5631965103471	-785.8182650408456	3569.6578494656956	-423.7200761195677	-575.1103017688532	3693.6440112411988	-653.9910297153525	-312.41973337087757	3773.840711797083	-713.6947678070859	-50.9328494757549	3755.602845659884	-630.3704201523138	68.23740819671497	3800.1155153858167	-560.2779618733844	77.21860373940605	3796.3339173794407	-576.5740152248734	80.23470920205258	3814.798604749307	-605.0889555696344	-639.430284454803	3894.515692631409	-416.69685768924955	-406.524995054545	4028.650841693091	-364.9857338035351	-149.9631025567791	4029.286567839997	-277.29458714042835	-16.722321130482463	4047.946136015584	-300.52474084802225	8.255287434781584	4004.8732839062827	-234.52553715919473	-16.6718308856935	4020.0255107353864	-233.0099459813475
597	9.95	-84.09506203697647	3889.5272084069225	-582.2555996219003	256.95452863054703	3984.5620826296436	-540.1449751968327	624.7433435432274	4147.739979683951	-523.9694264186504	710.2623896408003	4099.132695291708	-484.7421807756091	697.5915057726202	4036.550510865743	-533.1847387820501	651.5677716770858	4161.113881596702	-524.6533156278787	-130.03690606438767	3938.549140345156	-373.2427336129913	215.80148611187437	4005.7744527800483	-354.9589977200269	583.9113534469765	4197.615061771158	-381.9178626746007	692.390588827905	4195.115925217774	-349.90450922051645	657.2203454228888	4257.753828049933	-333.337278352507	604.7268650550513	4252.6273474983855	-422.55053623477306	-700.2976714628487	3746.996456761335	-527.9004919579882	-916.9128213606161	3560.086128297946	-457.82699488123274	-785.7491133983025	3569.6063545300435	-423.81503360794517	-574.8484697814188	3693.9919295821487	-659.9616264906551	-314.50511062225473	3800.5899707030526	-721.3986372687646	-51.01780644536902	3755.5095568224488	-630.3380212584112	69.07917711822326	3800.4289397171383	-566.6946210318517	77.11479890318402	3795.515392089056	-576.2983160441233	79.44011122478324	3788.465005989208	-598.5117297850924	-639.3179143753553	3894.374853795414	-416.5538866487528	-405.51155722109564	4008.9350834610236	-351.2772211640358	-150.49821656015624	4026.303845121953	-270.4356026080064	-15.962806570952738	4069.885269770049	-315.09999577782514	9.349380688461734	4024.934273316503	-247.4578027705131	-16.71395655680968	4020.1914210975083	-233.019742660627
598	9.966666666666667	-84.0906418476635	3889.7069313271104	-582.3475111460432	257.09756340868717	3984.3263876244114	-540.1111048000186	618.3824221768274	4144.615334814551	-524.5503868580258	710.0808976166894	4099.091427490101	-484.79237508407425	697.230195629486	4036.3977223313864	-533.2027629000452	651.3949541846443	4161.510788850851	-524.7717653655458	-130.03023159097674	3938.7990896162055	-373.3284377929975	215.85818850421865	4006.068629505272	-355.1408483638354	577.5825838219812	4194.41983095661	-382.78308269538866	686.3647749376946	4191.347190252155	-350.62284180953907	650.7269302687438	4254.105229028095	-334.0687715051222	604.5007726252301	4252.581068022306	-422.6422740369857	-695.0108724457781	3748.5603497135526	-527.6796934048024	-916.9959722510954	3560.1937582231617	-457.8864074407398	-785.7853861104613	3569.579675605514	-423.80929564041304	-574.8674544541678	3694.0081607361726	-660.0292423483278	-314.474125756911	3800.711937462284	-721.4925224724435	-50.96365477191584	3755.838802604826	-630.3955567359585	69.22143269217865	3800.5710290991706	-566.7866700545432	77.17875052178523	3795.766560602266	-576.4529485886807	79.4699837942969	3788.5878892081705	-598.6694563900361	-639.3475687064304	3894.3454302421765	-416.56018634823965	-400.47399584398397	4012.4738978614255	-352.6710397810766	-150.5841909885499	4026.5593329331277	-270.55148911215167	-16.927442846879686	4048.9076615670024	-300.78847982567913	3.6436349345886807	4002.1983952849473	-233.319194114741	-16.743292916396047	4020.524375291346	-233.22425908446507
599	9.983333333333333	-83.97951844308098	3890.0104710378705	-582.4246405943721	260.543805620298	4008.393831926996	-555.6722917294401	620.3275461373734	4117.8357397068185	-517.0456800453674	703.6178550542942	4096.1015113486255	-485.5127892689258	707.2821700271297	4089.4161280046123	-555.9098721272718	651.5104187481846	4161.077824482499	-524.7113179495493	-129.94210129788698	3938.787424821959	-373.3098344175474	215.9650893143138	4006.2256220042314	-355.08518266227725	577.7045717454422	4194.362373983965	-382.75710873471496	686.3685235531855	4191.542965291522	-350.8004623911856	651.2425253893889	4222.1257272787725	-328.4382993975798	604.8590492416315	4252.222905722606	-422.4532140279873	-694.9982974315343	3748.817168435446	-527.8157391813297	-921.0127911786076	3556.827764658905	-451.661236304492	-785.7520189610225	3569.57886427919	-423.76174048251164	-574.8479199987709	3694.1101964212544	-660.1042790805907	-314.42194215072686	3800.6740791391476	-721.4375085164979	-50.88104225356642	3755.8596598516733	-630.3655376555779	69.19683582495445	3800.5501232976685	-566.7189330747821	77.31189948166256	3795.7954613873476	-576.4333857664192	80.26563838068842	3814.3099060893305	-604.9621135226356	-639.298035060694	3894.5383245744824	-416.5732157024655	-400.43295895940355	4012.622701464179	-352.66001652135907	-149.84212074217396	4029.543512104722	-277.3525910078273	-15.740025053009488	4070.1523672033413	-314.98349706961756	9.431210551076855	4024.8800045210946	-247.25331906029658	-16.754465972885832	4020.0495694099914	-232.95657870136847
600	10.0	-84.05260239125366	3890.00882227297	-582.4682012383655	257.7900960781932	3987.0778323299282	-539.9791006744108	629.5551083977082	4169.875685148806	-538.9603532522588	710.029540511827	4099.151837505133	-484.7752216608735	697.1165404279154	4036.812803272175	-533.2847982395242	651.5869168762368	4161.614749197797	-524.8468455381058	-129.30056970555702	3942.213110271825	-380.8891859505321	215.97268581002055	4006.265306227911	-355.15365763709883	584.2960042562821	4197.712052015222	-381.92963789353445	681.8991753049776	4162.246743059874	-345.6230531733384	652.2336756770487	4226.0643130294	-328.1476934942832	604.7968277403197	4252.517004348909	-422.5220428166684	-695.021826051868	3748.8106281585915	-527.7446111034657	-920.9404631464803	3556.7480254442826	-451.6266619472999	-785.7009876994347	3569.4285809862695	-423.72881671935943	-574.8409328032614	3694.0342746850924	-660.0809072224877	-314.44070096512627	3800.556144826887	-721.3773650519958	-50.90041577419193	3755.8593743568167	-630.3218659783968	69.14397644219424	3800.5971560173653	-566.783858731544	77.24166489309391	3795.7403715923056	-576.4481049705619	79.69235822442577	3788.6242735462038	-598.577847186181	-639.319680975148	3894.463175097574	-416.539193657973	-405.4133469457561	4009.4071853520886	-351.58213898238046	-149.80271752761794	4029.5925228611873	-277.4656553116355	-15.635641991394712	4069.90210507968	-315.0156742468095	9.566250040927738	4024.6089307793222	-247.2085855912848	-16.6783704774372	4019.8164650966196	-232.92150451929612
601	10.016666666666667	-83.48020675020783	3860.912702626142	-574.8898354289202	262.961720002117	3986.3947582280225	-539.2978891642842	618.9582741402995	4147.059476162014	-525.0811560800616	704.1344892226299	4096.60984447268	-485.6607284345902	713.3459754079644	4123.4501021235	-564.1142666387431	661.0426913280908	4227.27865022855	-539.4805999203176	-129.93057737608322	3938.459922517318	-373.23348194550726	222.0306976042919	4008.7640591893	-354.4486282017937	579.661900543579	4176.203694450856	-367.9741937955116	686.4202857263734	4191.140873448597	-350.56017850711595	657.6056034934109	4225.527248110156	-327.52532012159486	611.8100098207047	4238.849560975553	-409.85742606676473	-695.0112433446408	3748.7717402930643	-527.6850694247915	-921.1271036913521	3557.6460026923246	-457.1887959166381	-781.357679264024	3570.3707405809982	-423.35314852301553	-575.0569520302488	3693.481848373365	-653.9454872799182	-314.3999165178254	3800.5380117348145	-721.453783005387	-50.932764383077206	3755.4625753242576	-630.293974143424	69.3795099266345	3800.7252659029073	-566.829775488631	77.46357593273981	3796.157906123285	-576.7342919149575	80.22694360195308	3814.461674797893	-605.0089114372469	-639.3466546647011	3893.66586410805	-416.2196267720231	-405.4406567187069	4009.216974000676	-351.27975904666863	-149.68494513916943	4029.7625119308796	-277.4307568082035	-8.935098970758798	4074.7020718747194	-320.9868472952477	9.773867160642007	4025.134071827641	-247.63794665456737	-16.388131420445017	4020.588868424736	-233.22464468902416
602	10.033333333333333	-83.45745951169995	3861.139471272567	-575.0389829651781	257.8662736942396	3986.533958327396	-539.8559389644895	618.8343458739728	4146.393089601624	-524.8180190774639	708.8130565779	4098.585935836946	-478.24803305659157	707.6512386167684	4090.753620438373	-556.3032947857813	656.0720032217239	4194.62487908368	-532.0362305417652	-129.9717920264923	3938.564605622115	-373.3682995187473	216.23969756828	4006.2708201909422	-355.0843784901752	579.7258112919804	4175.938384685654	-367.90135010535755	687.2293155776099	4160.962534814565	-344.81967294052754	657.5512358929528	4225.062768576982	-327.4837211375818	617.6824106491498	4237.968347820068	-409.11567600664256	-695.008905359639	3748.703037218811	-527.6902425806538	-921.0243527253602	3557.4765793073952	-457.077989867534	-781.3491048231671	3570.4790337368236	-423.39961806080555	-575.0577815520834	3693.531380982209	-653.9532018407876	-319.4831896489582	3800.03644941773	-721.6645330699034	-51.13869590976739	3755.1674424055036	-630.515774280794	69.29523440185496	3800.2697275617616	-566.6249121415237	76.96415981039658	3795.672247058372	-576.3322577644954	79.8483129334002	3814.3855845318158	-605.0842600966203	-639.3171672810768	3893.765569153201	-416.33446771191973	-405.4032314952763	4009.112149029173	-351.2810927128315	-150.2698866515345	4026.699691425404	-270.62324505043887	-9.731794530755574	4072.814295209895	-314.70661564768795	9.585270017655654	4025.384831152453	-247.68234343872143	-16.540876038763678	4020.777443691284	-233.2602528258962
